solid Untitled-58a43986
facet normal 0.9999999999999999 0.0 0.0
  outer loop
    vertex 66.720141 34.351524999999995 0.0
    vertex 66.720141 0.0 42.12309199999999
    vertex 66.720141 0.0 0.0
  endloop
endfacet
facet normal 0.9999999999999999 0.0 0.0
  outer loop
    vertex 66.720141 0.0 42.12309199999999
    vertex 66.720141 34.351524999999995 0.0
    vertex 66.720141 34.351524999999995 42.12309199999999
  endloop
endfacet
facet normal -0.0 1.0 0.0
  outer loop
    vertex 0.0 34.351524999999995 42.12309199999999
    vertex 66.720141 34.351524999999995 0.0
    vertex 0.0 34.351524999999995 0.0
  endloop
endfacet
facet normal -0.0 1.0 0.0
  outer loop
    vertex 66.720141 34.351524999999995 0.0
    vertex 0.0 34.351524999999995 42.12309199999999
    vertex 66.720141 34.351524999999995 42.12309199999999
  endloop
endfacet
facet normal -0.0 -1.0 -0.0
  outer loop
    vertex 66.720141 0.0 42.12309199999999
    vertex 0.0 0.0 0.0
    vertex 66.720141 0.0 0.0
  endloop
endfacet
facet normal -0.0 -1.0 -0.0
  outer loop
    vertex 0.0 0.0 0.0
    vertex 66.720141 0.0 42.12309199999999
    vertex 0.0 0.0 42.12309199999999
  endloop
endfacet
facet normal 0.0 0.0 1.0
  outer loop
    vertex 66.720141 0.0 42.12309199999999
    vertex 0.0 34.351524999999995 42.12309199999999
    vertex 0.0 0.0 42.12309199999999
  endloop
endfacet
facet normal 0.0 0.0 1.0
  outer loop
    vertex 0.0 34.351524999999995 42.12309199999999
    vertex 66.720141 0.0 42.12309199999999
    vertex 66.720141 34.351524999999995 42.12309199999999
  endloop
endfacet
facet normal -0.9999999999999999 0.0 0.0
  outer loop
    vertex 0.0 34.351524999999995 42.12309199999999
    vertex 0.0 0.0 0.0
    vertex 0.0 0.0 42.12309199999999
  endloop
endfacet
facet normal -0.9999999999999999 0.0 0.0
  outer loop
    vertex 0.0 0.0 0.0
    vertex 0.0 34.351524999999995 42.12309199999999
    vertex 0.0 34.351524999999995 0.0
  endloop
endfacet
facet normal 0.0 0.0 -1.0
  outer loop
    vertex 66.720141 34.351524999999995 0.0
    vertex 0.0 0.0 0.0
    vertex 0.0 34.351524999999995 0.0
  endloop
endfacet
facet normal 0.0 0.0 -1.0
  outer loop
    vertex 0.0 0.0 0.0
    vertex 66.720141 34.351524999999995 0.0
    vertex 66.720141 0.0 0.0
  endloop
endfacet
endsolid Untitled-58a43986
