solid Untitled-5b194818
facet normal 0.0 1.0 0.0
  outer loop
    vertex -70.69999999999999 71.0 20.999999999999996
    vertex 0.0 71.0 0.0
    vertex -70.69999999999999 71.0 0.0
  endloop
endfacet
facet normal 0.0 1.0 0.0
  outer loop
    vertex 0.0 71.0 0.0
    vertex -70.69999999999999 71.0 20.999999999999996
    vertex 0.0 71.0 20.999999999999996
  endloop
endfacet
facet normal 0.0 -1.0 0.0
  outer loop
    vertex 0.0 0.0 20.999999999999996
    vertex -70.69999999999999 0.0 0.0
    vertex 0.0 0.0 0.0
  endloop
endfacet
facet normal 0.0 -1.0 0.0
  outer loop
    vertex -70.69999999999999 0.0 0.0
    vertex 0.0 0.0 20.999999999999996
    vertex -70.69999999999999 0.0 20.999999999999996
  endloop
endfacet
facet normal 0.0 0.0 -1.0
  outer loop
    vertex 0.0 71.0 0.0
    vertex -70.69999999999999 0.0 0.0
    vertex -70.69999999999999 71.0 0.0
  endloop
endfacet
facet normal 0.0 0.0 -1.0
  outer loop
    vertex -70.69999999999999 0.0 0.0
    vertex 0.0 71.0 0.0
    vertex 0.0 0.0 0.0
  endloop
endfacet
facet normal 1.0 0.0 0.0
  outer loop
    vertex 0.0 71.0 0.0
    vertex 0.0 0.0 20.999999999999996
    vertex 0.0 0.0 0.0
  endloop
endfacet
facet normal 1.0 0.0 0.0
  outer loop
    vertex 0.0 0.0 20.999999999999996
    vertex 0.0 71.0 0.0
    vertex 0.0 71.0 20.999999999999996
  endloop
endfacet
facet normal -1.0 0.0 0.0
  outer loop
    vertex -70.69999999999999 71.0 20.999999999999996
    vertex -70.69999999999999 0.0 0.0
    vertex -70.69999999999999 0.0 20.999999999999996
  endloop
endfacet
facet normal -1.0 0.0 0.0
  outer loop
    vertex -70.69999999999999 0.0 0.0
    vertex -70.69999999999999 71.0 20.999999999999996
    vertex -70.69999999999999 71.0 0.0
  endloop
endfacet
facet normal 0.0 0.0 1.0
  outer loop
    vertex 0.0 0.0 20.999999999999996
    vertex -70.69999999999999 71.0 20.999999999999996
    vertex -70.69999999999999 0.0 20.999999999999996
  endloop
endfacet
facet normal 0.0 0.0 1.0
  outer loop
    vertex -70.69999999999999 71.0 20.999999999999996
    vertex 0.0 0.0 20.999999999999996
    vertex 0.0 71.0 20.999999999999996
  endloop
endfacet
endsolid Untitled-5b194818
